HIERARCHY
ROOT joint_Root
{
	OFFSET 0.0 0.0 0.0
	CHANNELS 6 Xposition Yposition Zposition Zrotation Xrotation Yrotation 
	JOINT Hips
	{
		OFFSET -17.1583 93.1646 452.98
		CHANNELS 6 Xposition Yposition Zposition Zrotation Xrotation Yrotation 
		JOINT Spine
		{
			OFFSET 15.7357 0.0 0.0
			CHANNELS 6 Xposition Yposition Zposition Zrotation Xrotation Yrotation 
			JOINT Chest
			{
				OFFSET 8.98455 -0.406207 0.0
				CHANNELS 6 Xposition Yposition Zposition Zrotation Xrotation Yrotation 
				JOINT Neck
				{
					OFFSET 16.3773 0.0 0.0
					CHANNELS 6 Xposition Yposition Zposition Zrotation Xrotation Yrotation 
					JOINT Head
					{
						OFFSET 6.45672 0.0 0.0
						CHANNELS 6 Xposition Yposition Zposition Zrotation Xrotation Yrotation 
						End Site
						{
							OFFSET 0.0 0.0 0.0
						}
					}
				}
				JOINT Shoulder_L
				{
					OFFSET 12.9942 -0.242716 4.98039
					CHANNELS 6 Xposition Yposition Zposition Zrotation Xrotation Yrotation 
					JOINT UpperArm_L
					{
						OFFSET 5.34809 0.0 0.0
						CHANNELS 6 Xposition Yposition Zposition Zrotation Xrotation Yrotation 
						JOINT LowerArm_L
						{
							OFFSET 24.3286 1.87007e-05 0.0
							CHANNELS 6 Xposition Yposition Zposition Zrotation Xrotation Yrotation 
							JOINT Hand_L
							{
								OFFSET 22.2916 0.0 0.0
								CHANNELS 6 Xposition Yposition Zposition Zrotation Xrotation Yrotation 
								End Site
								{
									OFFSET 0.0 0.0 0.0
								}
							}
						}
					}
				}
				JOINT Shoulder_R
				{
					OFFSET 12.9945 -0.242716 -4.98039
					CHANNELS 6 Xposition Yposition Zposition Zrotation Xrotation Yrotation 
					JOINT UpperArm_R
					{
						OFFSET -5.34813 0.0 0.0
						CHANNELS 6 Xposition Yposition Zposition Zrotation Xrotation Yrotation 
						JOINT LowerArm_R
						{
							OFFSET -24.3289 0.000322201 0.0
							CHANNELS 6 Xposition Yposition Zposition Zrotation Xrotation Yrotation 
							JOINT Hand_R
							{
								OFFSET -22.2915 -0.000108084 0.0
								CHANNELS 6 Xposition Yposition Zposition Zrotation Xrotation Yrotation 
								End Site
								{
									OFFSET 0.0 0.0 0.0
								}
							}
						}
					}
				}
			}
		}
		JOINT UpperLeg_L
		{
			OFFSET -2.19248 -6.46944 0.0
			CHANNELS 6 Xposition Yposition Zposition Zrotation Xrotation Yrotation 
			JOINT LowerLeg_L
			{
				OFFSET 39.0811 0.0 -1.23785e-05
				CHANNELS 6 Xposition Yposition Zposition Zrotation Xrotation Yrotation 
				JOINT Foot_L
				{
					OFFSET 40.9854 0.0 -1.26872e-05
					CHANNELS 6 Xposition Yposition Zposition Zrotation Xrotation Yrotation 
					JOINT Toes_L
					{
						OFFSET 11.7543 0.0 0.0
						CHANNELS 6 Xposition Yposition Zposition Zrotation Xrotation Yrotation 
						End Site
						{
							OFFSET 0.0 0.0 0.0
						}
					}
				}
			}
		}
		JOINT UpperLeg_R
		{
			OFFSET -2.19251 6.46944 0.0
			CHANNELS 6 Xposition Yposition Zposition Zrotation Xrotation Yrotation 
			JOINT LowerLeg_R
			{
				OFFSET -39.0811 -0.00228153 -0.0401928
				CHANNELS 6 Xposition Yposition Zposition Zrotation Xrotation Yrotation 
				JOINT Foot_R
				{
					OFFSET -40.9854 0.0 0.0
					CHANNELS 6 Xposition Yposition Zposition Zrotation Xrotation Yrotation 
					JOINT Toes_R
					{
						OFFSET -11.7543 0.0 0.0
						CHANNELS 6 Xposition Yposition Zposition Zrotation Xrotation Yrotation 
						End Site
						{
							OFFSET 0.0 0.0 0.0
						}
					}
				}
			}
		}
	}
}
MOTION
Frames:	9
Frame Time:	0.0333333
0.000000 0.000000 0.000000 0.000000 0.000000 -0.000000 -2.736960 93.444100 -5.499430 87.782000 4.496290 3.829800 15.735700 0.000005 -0.000001 87.593600 83.692800 -85.733400 8.984550 -0.406207 -0.000000 4.849510 -0.575893 3.740580 16.377300 -0.000001 -0.000001 1.904290 0.389513 -1.063190 6.456720 -0.000001 -0.000000 -13.562100 -0.476511 -1.553520 12.994200 -0.242716 4.980390 -92.680600 8.799990 -72.984000 5.348090 -0.000007 -0.000001 -68.695100 27.701600 -13.360800 24.328600 0.000019 0.000005 7.859010 33.834500 -13.927700 22.291600 -0.000001 0.000005 -17.518100 5.275540 0.671530 12.994500 -0.242716 -4.980390 88.314100 5.367480 -72.534200 -5.348130 -0.000001 -0.000004 -61.219500 37.990200 -20.036900 -24.328900 0.000322 -0.000009 1.586350 7.320850 -12.269500 -22.291500 -0.000108 -0.000004 -13.374900 5.163870 3.650520 -2.192480 -6.469440 -0.000000 -172.121000 -10.430300 -3.104700 39.081100 -0.000007 -0.000012 -0.007183 0.024561 16.300100 40.985400 -0.000006 -0.000013 -1.567510 17.443200 -65.435900 11.754300 -0.000000 0.000003 -0.000732 0.179153 -9.309740 -2.192510 6.469440 -0.000001 177.801000 12.104200 -179.815000 -39.081100 -0.002282 -0.040193 0.018434 -0.064873 13.103600 -40.985400 0.000008 0.000006 -5.030410 9.319850 -65.042200 -11.754300 -0.000006 -0.000006 -0.010358 0.273965 -5.442190
0.000000 0.000000 0.000000 0.000000 0.000000 -0.000000 -2.729510 93.424000 -5.059940 87.813500 4.041370 3.615890 15.735700 0.000005 -0.000001 87.412400 84.089700 -85.595700 8.984550 -0.406207 -0.000000 4.054680 -0.591642 3.650370 16.377300 -0.000001 -0.000001 1.895450 0.671185 -1.124150 6.456720 -0.000001 -0.000000 -14.524600 -0.105310 -1.564180 12.994200 -0.242716 4.980390 -92.631500 8.393540 -72.522700 5.348090 -0.000007 -0.000001 -65.710600 25.143300 -17.992900 24.328600 0.000019 0.000005 7.032380 40.410200 -10.778700 22.291600 -0.000001 0.000005 -26.223700 5.373440 -2.190110 12.994500 -0.242716 -4.980390 88.419500 4.822120 -71.827300 -5.348130 -0.000001 -0.000004 -59.191200 35.018500 -23.752400 -24.328900 0.000322 -0.000009 1.547070 7.042840 -12.430400 -22.291500 -0.000108 -0.000004 -20.886400 5.085460 5.473630 -2.192480 -6.469440 -0.000000 -172.074000 -10.742200 -2.900940 39.081100 -0.000007 -0.000012 -0.004616 0.015810 16.276400 40.985400 -0.000006 -0.000013 -1.573050 17.321600 -65.705600 11.754300 -0.000000 0.000003 -0.000739 0.179248 -9.305880 -2.192510 6.469440 -0.000001 177.757000 11.987800 -179.780000 -39.081100 -0.002282 -0.040193 0.018894 -0.066630 13.144600 -40.985400 0.000008 0.000006 -5.063120 9.646700 -65.245000 -11.754300 -0.000006 -0.000006 -0.010279 0.273375 -5.466310
0.000000 0.000000 0.000000 0.000000 0.000000 -0.000000 -2.739310 93.450900 -4.595370 87.788500 3.679990 2.927150 15.735700 0.000005 -0.000001 86.384900 84.934500 -84.620400 8.984550 -0.406207 -0.000000 2.358550 -0.721525 3.540350 16.377300 -0.000001 -0.000001 1.946130 0.831108 -1.070220 6.456720 -0.000001 -0.000000 -15.168600 0.314283 -1.847910 12.994200 -0.242716 4.980390 -92.397800 7.377280 -71.937400 5.348090 -0.000007 -0.000001 -62.829700 18.468000 -22.795700 24.328600 0.000019 0.000005 5.447090 45.784000 -7.579310 22.291600 -0.000001 0.000005 -33.635500 5.406430 -3.133350 12.994500 -0.242716 -4.980390 88.642400 3.931600 -70.931100 -5.348130 -0.000001 -0.000004 -56.747300 30.368600 -27.942100 -24.328900 0.000322 -0.000009 1.536120 6.621340 -13.102500 -22.291500 -0.000108 -0.000004 -26.527200 5.053260 6.166270 -2.192480 -6.469440 -0.000000 -172.054000 -11.389300 -2.982210 39.081100 -0.000007 -0.000012 -0.006399 0.022504 15.872600 40.985400 -0.000006 -0.000013 -1.604470 17.394100 -65.887100 11.754300 -0.000000 0.000003 -0.001053 0.183792 -9.121220 -2.192510 6.469440 -0.000001 177.790000 12.436900 -179.904000 -39.081100 -0.002282 -0.040193 0.015065 -0.052701 12.548300 -40.985400 0.000008 0.000006 -5.329630 10.471500 -64.994500 -11.754300 -0.000006 -0.000006 -0.010533 0.275248 -5.389700
0.000000 0.000000 0.000000 0.000000 0.000000 -0.000000 -2.748520 93.487400 -4.029120 87.725000 3.379850 2.059010 15.735700 0.000005 -0.000001 84.813000 85.943600 -83.074200 8.984550 -0.406207 -0.000000 0.328933 -0.846046 3.477730 16.377300 -0.000001 -0.000001 1.572160 0.978236 -1.225000 6.456720 -0.000001 -0.000000 -15.410900 0.614403 -2.064500 12.994200 -0.242716 4.980390 -92.083600 6.225910 -71.454800 5.348090 -0.000007 -0.000001 -58.941700 10.394300 -27.953900 24.328600 0.000019 0.000005 4.079620 45.868900 -5.674630 22.291600 -0.000001 0.000005 -33.882000 5.353420 -1.498450 12.994500 -0.242716 -4.980390 88.947900 2.962650 -70.437800 -5.348130 -0.000001 -0.000004 -53.347300 24.034800 -32.732500 -24.328900 0.000322 -0.000009 0.878491 3.694920 -13.400200 -22.291500 -0.000108 -0.000004 -25.968500 5.064670 5.917850 -2.192480 -6.469440 -0.000000 -171.986000 -12.081000 -3.095100 39.081100 -0.000007 -0.000012 -0.014466 0.053037 15.256100 40.985400 -0.000006 -0.000013 -1.667240 17.699100 -65.963200 11.754300 -0.000000 0.000003 -0.001231 0.186270 -9.020520 -2.192510 6.469440 -0.000001 177.836000 13.597700 -179.926000 -39.081100 -0.002282 -0.040193 0.008981 -0.027569 11.572100 -40.985400 0.000008 0.000006 -5.531550 11.829300 -64.532700 -11.754300 -0.000006 -0.000006 -0.010184 0.272675 -5.494950
0.000000 0.000000 0.000000 0.000000 0.000000 -0.000000 -2.747970 93.509300 -3.395810 87.662700 3.160260 1.221730 15.735700 0.000005 -0.000001 83.087600 86.837300 -81.372500 8.984550 -0.406207 -0.000000 -1.470910 -0.899292 3.417690 16.377300 -0.000001 -0.000001 0.359316 1.120590 -1.342470 6.456720 -0.000001 -0.000000 -15.463400 0.801357 -2.304410 12.994200 -0.242716 4.980390 -91.793300 5.245040 -71.093800 5.348090 -0.000007 -0.000001 -54.093300 1.751440 -33.777700 24.328600 0.000019 0.000005 3.583970 42.286400 -5.318720 22.291600 -0.000001 0.000005 -26.678900 5.343730 -1.168320 12.994500 -0.242716 -4.980390 89.239600 2.116860 -70.237000 -5.348130 -0.000001 -0.000004 -49.594800 15.501600 -38.117500 -24.328900 0.000322 -0.000009 0.092106 0.397839 -13.160300 -22.291500 -0.000108 -0.000004 -20.671000 5.123720 4.601040 -2.192480 -6.469440 -0.000000 -171.969000 -12.425800 -3.207310 39.081100 -0.000007 -0.000012 -0.020911 0.079693 14.702400 40.985400 -0.000006 -0.000013 -1.750990 17.613600 -66.015400 11.754300 -0.000000 0.000003 -0.001838 0.194297 -8.694190 -2.192510 6.469440 -0.000001 177.938000 14.310500 -179.833000 -39.081100 -0.002282 -0.040193 0.003739 -0.002159 10.519200 -40.985400 0.000008 0.000006 -5.551180 12.679000 -64.211800 -11.754300 -0.000006 -0.000006 -0.010124 0.272231 -5.513120
0.000000 0.000000 0.000000 0.000000 0.000000 -0.000000 -2.738170 93.539300 -2.753670 87.620000 3.062430 0.382959 15.735700 0.000005 -0.000001 81.274100 87.616600 -79.601700 8.984550 -0.406207 -0.000000 -3.039440 -0.880482 3.322020 16.377300 -0.000001 -0.000001 -1.570010 1.196890 -1.411150 6.456720 -0.000001 -0.000000 -15.203200 0.824772 -2.309130 12.994200 -0.242716 4.980390 -91.381600 4.000680 -70.929200 5.348090 -0.000007 -0.000001 -49.025600 -6.679180 -39.133700 24.328600 0.000019 0.000005 4.084070 35.541800 -7.006010 22.291600 -0.000001 0.000005 -15.545400 5.337010 -1.010990 12.994500 -0.242716 -4.980390 89.510700 1.357250 -70.172100 -5.348130 -0.000001 -0.000004 -45.763300 5.591530 -43.665400 -24.328900 0.000322 -0.000009 -0.176432 -0.770951 -12.817300 -22.291500 -0.000108 -0.000004 -13.180300 5.195440 2.860700 -2.192480 -6.469440 -0.000000 -172.026000 -12.153100 -3.238250 39.081100 -0.000007 -0.000012 -0.020033 0.080547 13.966400 40.985400 -0.000006 -0.000013 -1.892840 17.138300 -66.044900 11.754300 -0.000000 0.000003 -0.002075 0.197277 -8.572990 -2.192510 6.469440 -0.000001 178.055000 14.156900 -179.685000 -39.081100 -0.002282 -0.040193 -0.000530 0.023659 9.289610 -40.985400 0.000008 0.000006 -6.295320 12.582200 -63.606200 -11.754300 -0.000006 -0.000006 -0.010806 0.277235 -5.308370
0.000000 0.000000 0.000000 0.000000 0.000000 -0.000000 -2.674680 93.591200 -2.107800 87.624100 2.988740 -0.590058 15.735700 0.000005 -0.000001 78.716700 88.398700 -77.106300 8.984550 -0.406207 -0.000000 -4.612350 -0.799910 3.190830 16.377300 -0.000001 -0.000001 -3.577470 1.310490 -1.408190 6.456720 -0.000001 -0.000000 -14.749100 0.816548 -2.082170 12.994200 -0.242716 4.980390 -90.927600 2.597670 -70.339200 5.348090 -0.000007 -0.000001 -45.141400 -15.451700 -44.753100 24.328600 0.000019 0.000005 3.861600 28.264800 -8.112410 22.291600 -0.000001 0.000005 -4.024900 5.296090 0.130341 12.994500 -0.242716 -4.980390 89.942500 0.159679 -70.199500 -5.348130 -0.000001 -0.000004 -43.307200 -5.460490 -48.917100 -24.328900 0.000322 -0.000009 -0.138942 -0.644718 -12.073900 -22.291500 -0.000108 -0.000004 -5.639490 5.245380 1.573700 -2.192480 -6.469440 -0.000000 -172.176000 -12.043100 -3.210620 39.081100 -0.000007 -0.000012 -0.014505 0.063410 12.884300 40.985400 -0.000006 -0.000013 -2.033170 16.819500 -66.043700 11.754300 -0.000000 0.000003 -0.002413 0.201407 -8.405000 -2.192510 6.469440 -0.000001 178.057000 13.651700 -179.339000 -39.081100 -0.002282 -0.040193 -0.000266 0.027776 7.403200 -40.985400 0.000008 0.000006 -7.828290 12.197600 -62.472600 -11.754300 -0.000006 -0.000006 -0.011136 0.279607 -5.211310
0.000000 0.000000 0.000000 0.000000 0.000000 -0.000000 -2.580070 93.649900 -1.390720 87.655100 3.008890 -1.682790 15.735700 0.000005 -0.000001 71.678500 89.171900 -70.130800 8.984550 -0.406207 -0.000000 -6.182600 -0.708032 3.061270 16.377300 -0.000001 -0.000001 -5.172510 1.339830 -1.344380 6.456720 -0.000001 -0.000000 -14.388500 0.851259 -1.942650 12.994200 -0.242716 4.980390 -90.498500 1.365790 -69.945600 5.348090 -0.000007 -0.000001 -43.061400 -25.084800 -51.195700 24.328600 0.000019 0.000005 2.926760 23.220100 -7.386880 22.291600 -0.000001 0.000005 5.351990 5.183560 3.026350 12.994500 -0.242716 -4.980390 90.435500 -1.191420 -69.920300 -5.348130 -0.000001 -0.000004 -41.690600 -16.497900 -54.620700 -24.328900 0.000322 -0.000009 -0.502262 -2.784980 -10.222500 -22.291500 -0.000108 -0.000004 0.508830 5.285690 0.492478 -2.192480 -6.469440 -0.000000 -172.390000 -12.059000 -3.118650 39.081100 -0.000007 -0.000012 -0.008861 0.043475 11.519400 40.985400 -0.000006 -0.000013 -2.208890 16.725800 -65.974800 11.754300 -0.000000 0.000003 -0.002533 0.202834 -8.346950 -2.192510 6.469440 -0.000001 177.956000 13.878500 -178.526000 -39.081100 -0.002282 -0.040193 0.004338 -0.012593 4.495960 -40.985400 0.000008 0.000006 -9.671610 12.407300 -60.698600 -11.754300 -0.000006 -0.000006 -0.011250 0.280422 -5.177920
0.000000 0.000000 0.000000 0.000000 0.000000 -0.000000 -2.478920 93.680500 -0.612775 87.717400 3.245750 -2.706730 15.735700 0.000005 -0.000001 22.412500 89.696000 -20.937700 8.984550 -0.406207 -0.000000 -7.523110 -0.757281 2.905620 16.377300 -0.000001 -0.000001 -6.692670 1.352470 -1.331370 6.456720 -0.000001 -0.000000 -13.957000 0.917643 -1.726660 12.994200 -0.242716 4.980390 -90.043000 0.115034 -69.470000 5.348090 -0.000007 -0.000001 -42.820300 -34.393400 -58.431200 24.328600 0.000019 0.000005 1.766170 18.247600 -5.620470 22.291600 -0.000001 0.000005 14.647600 5.034430 6.510070 12.994500 -0.242716 -4.980390 90.959000 -2.548060 -69.370500 -5.348130 -0.000001 -0.000004 -41.251200 -27.003500 -60.781400 -24.328900 0.000322 -0.000009 -0.950826 -6.895740 -7.878720 -22.291500 -0.000108 -0.000004 6.947840 5.341970 -1.076060 -2.192480 -6.469440 -0.000000 -172.446000 -12.087200 -3.234770 39.081100 -0.000007 -0.000012 -0.019814 0.106175 10.570600 40.985400 -0.000006 -0.000013 -3.662400 17.036000 -65.322900 11.754300 -0.000000 0.000003 -0.002962 0.207799 -8.144930 -2.192510 6.469440 -0.000001 177.967000 14.462200 -178.737000 -39.081100 -0.002282 -0.040193 0.004842 -0.021854 3.908830 -40.985400 0.000008 0.000006 -9.817140 12.756000 -60.574400 -11.754300 -0.000006 -0.000006 -0.011283 0.280656 -5.168350
